<?xml version="1.0" encoding="UTF-8" standalone="no"?>
<!--
✒ Metadata
    - Title: digiSpace Template — Default (1000 px square)
    - File Name: default.svg
    - Relative Path: default.svg
    - Artifact Type: template
    - Version: 1.0.0
    - Date: 2026-05-28
    - Update: Thursday, May 28, 2026
    - Author: Dennis 'dendogg' Smaltz
    - A.I. Acknowledgement: Anthropic - Claude Opus 4.7
    - Signature: ︻デ═─── ✦ ✦ ✦ | Aim Twice, Shoot Once!

✒ Description:
    Clean 1000×1000 px starting canvas with a 1:1 viewBox so every
    Inkscape extension, import, and "px" measurement behaves
    predictably. Used by File → New (default) AND listed under
    File → New From Template.

✒ Why this exists:
    Replaces an earlier `default.svg` that had a 1,000,000,000-unit
    viewBox left over from a Save-as-Template of a Firewatch logo
    design. That made 1 px = 1,000,000 user units, so anything imported
    or generated by an extension at sane px sizes collapsed to
    sub-pixel territory. This template makes 1 px = 1 user unit.
-->
<svg width="946" height="946" viewBox="25 -46 946 946" version="1.1" id="svg1" inkscape:version="1.4.4 (dcaf3e7, 2026-05-05)" xml:space="preserve" sodipodi:docname="MessageVaultIcon.svg" xmlns:inkscape="http://www.inkscape.org/namespaces/inkscape" xmlns:sodipodi="http://sodipodi.sourceforge.net/DTD/sodipodi-0.dtd" xmlns:xlink="http://www.w3.org/1999/xlink" xmlns="http://www.w3.org/2000/svg" xmlns:svg="http://www.w3.org/2000/svg">
  <sodipodi:namedview id="namedview1" pagecolor="#ffffff" bordercolor="#000000" borderopacity="0.25" inkscape:showpageshadow="2" inkscape:pageopacity="0.0" inkscape:pagecheckerboard="false" inkscape:deskcolor="#d1d1d1" inkscape:document-units="px" showborder="false" showgrid="false" inkscape:zoom="0.48784524" inkscape:cx="11.274067" inkscape:cy="436.61388" inkscape:window-width="2560" inkscape:window-height="1334" inkscape:window-x="-11" inkscape:window-y="-11" inkscape:window-maximized="1" inkscape:current-layer="svg1" />
  <defs id="defs1">
    <linearGradient id="linearGradient752" inkscape:collect="always">
      <stop style="stop-color:#3e4b5f;stop-opacity:1;" offset="0" id="stop752" />
      <stop style="stop-color:#273346;stop-opacity:1;" offset="1" id="stop751" />
    </linearGradient>
    <inkscape:path-effect effect="offset" id="path-effect728" is_visible="true" lpeversion="1.3" linejoin_type="miter" unit="px" offset="-17.183689" miter_limit="4" attempt_force_join="false" update_on_knot_move="true" />
    <inkscape:path-effect effect="offset" id="path-effect726" is_visible="true" lpeversion="1.3" linejoin_type="miter" unit="px" offset="-14" miter_limit="4" attempt_force_join="false" update_on_knot_move="true" />
    <inkscape:path-effect effect="offset" id="path-effect724" is_visible="true" lpeversion="1.3" linejoin_type="miter" unit="px" offset="-12" miter_limit="4" attempt_force_join="false" update_on_knot_move="true" />
    <inkscape:path-effect effect="offset" id="path-effect722" is_visible="true" lpeversion="1.3" linejoin_type="miter" unit="px" offset="-10" miter_limit="4" attempt_force_join="false" update_on_knot_move="true" />
    <inkscape:path-effect effect="offset" id="path-effect720" is_visible="true" lpeversion="1.3" linejoin_type="miter" unit="px" offset="-8" miter_limit="4" attempt_force_join="false" update_on_knot_move="true" />
    <inkscape:path-effect effect="offset" id="path-effect718" is_visible="true" lpeversion="1.3" linejoin_type="miter" unit="px" offset="-6" miter_limit="4" attempt_force_join="false" update_on_knot_move="true" />
    <inkscape:path-effect effect="offset" id="path-effect716" is_visible="true" lpeversion="1.3" linejoin_type="miter" unit="px" offset="-4" miter_limit="4" attempt_force_join="false" update_on_knot_move="true" />
    <inkscape:path-effect effect="offset" id="path-effect714" is_visible="true" lpeversion="1.3" linejoin_type="miter" unit="px" offset="-2" miter_limit="4" attempt_force_join="false" update_on_knot_move="true" />
    <linearGradient id="linearGradient682" inkscape:collect="always">
      <stop style="stop-color:#faefae;stop-opacity:1;" offset="0" id="stop681" />
      <stop style="stop-color:#bf9449;stop-opacity:1;" offset="1" id="stop682" />
    </linearGradient>
    <linearGradient id="linearGradient534" inkscape:collect="always">
      <stop style="stop-color:#273346;stop-opacity:1;" offset="0" id="stop535" />
      <stop style="stop-color:#3e4b5f;stop-opacity:1;" offset="1" id="stop534" />
    </linearGradient>
    <linearGradient id="linearGradient104" inkscape:collect="always">
      <stop style="stop-color:#d5af65;stop-opacity:1;" offset="0" id="stop104" />
      <stop style="stop-color:#a88040;stop-opacity:1;" offset="1" id="stop105" />
    </linearGradient>
    <linearGradient inkscape:collect="always" xlink:href="#linearGradient104" id="linearGradient107" gradientUnits="userSpaceOnUse" x1="1629.7155" y1="489.99246" x2="1722.7477" y2="528.52765" spreadMethod="reflect" gradientTransform="matrix(0,1.1186669,-1.1186669,0,-1353.0631,-166.79564)" />
    <linearGradient inkscape:collect="always" xlink:href="#linearGradient104" id="linearGradient108" gradientUnits="userSpaceOnUse" x1="1629.7155" y1="489.99246" x2="1722.7477" y2="528.52765" spreadMethod="reflect" gradientTransform="matrix(1.1186669,0,0,1.1186669,-166.79565,1353.0631)" />
    <linearGradient inkscape:collect="always" xlink:href="#linearGradient104" id="linearGradient110" gradientUnits="userSpaceOnUse" x1="1629.7155" y1="489.99246" x2="1722.7477" y2="528.52765" spreadMethod="reflect" gradientTransform="matrix(1.1186669,0,0,1.1186669,-1074.7025,838.81779)" />
    <linearGradient inkscape:collect="always" xlink:href="#linearGradient104" id="linearGradient111" gradientUnits="userSpaceOnUse" x1="1629.7155" y1="489.99246" x2="1722.7477" y2="528.52765" spreadMethod="reflect" gradientTransform="matrix(1.1186669,0,0,1.1186669,838.81779,1074.7025)" />
    <linearGradient inkscape:collect="always" xlink:href="#linearGradient104" id="linearGradient112" gradientUnits="userSpaceOnUse" x1="1629.7155" y1="489.99246" x2="1722.7477" y2="528.52765" spreadMethod="reflect" gradientTransform="matrix(1.1186669,0,0,1.1186669,838.81779,1074.7025)" />
    <linearGradient inkscape:collect="always" xlink:href="#linearGradient104" id="linearGradient113" gradientUnits="userSpaceOnUse" x1="1629.7155" y1="489.99246" x2="1722.7477" y2="528.52765" spreadMethod="reflect" gradientTransform="matrix(1.1186669,0,0,1.1186669,-671.89388,1186.2374)" />
    <linearGradient inkscape:collect="always" xlink:href="#linearGradient104" id="linearGradient114" gradientUnits="userSpaceOnUse" x1="1629.7155" y1="489.99246" x2="1722.7477" y2="528.52765" spreadMethod="reflect" gradientTransform="matrix(1.1186669,0,0,1.1186669,-671.89388,1186.2374)" />
    <linearGradient inkscape:collect="always" xlink:href="#linearGradient104" id="linearGradient115" gradientUnits="userSpaceOnUse" x1="1629.7155" y1="489.99246" x2="1722.7477" y2="528.52765" spreadMethod="reflect" gradientTransform="matrix(1.1186669,0,0,1.1186669,1186.2374,671.89388)" />
    <linearGradient inkscape:collect="always" xlink:href="#linearGradient104" id="linearGradient116" gradientUnits="userSpaceOnUse" x1="1629.7155" y1="489.99246" x2="1722.7477" y2="528.52765" spreadMethod="reflect" gradientTransform="matrix(1.1186669,0,0,1.1186669,1186.2374,671.89388)" />
    <linearGradient inkscape:collect="always" xlink:href="#linearGradient104" id="linearGradient117" gradientUnits="userSpaceOnUse" x1="1629.7155" y1="489.99246" x2="1722.7477" y2="528.52765" spreadMethod="reflect" gradientTransform="matrix(1.1186669,0,0,1.1186669,363.69581,-1313.8973)" />
    <linearGradient inkscape:collect="always" xlink:href="#linearGradient104" id="linearGradient118" gradientUnits="userSpaceOnUse" x1="1629.7155" y1="489.99246" x2="1722.7477" y2="528.52765" spreadMethod="reflect" gradientTransform="matrix(1.1186669,0,0,1.1186669,363.69581,-1313.8973)" />
    <linearGradient inkscape:collect="always" xlink:href="#linearGradient104" id="linearGradient119" gradientUnits="userSpaceOnUse" x1="1629.7155" y1="489.99246" x2="1722.7477" y2="528.52765" spreadMethod="reflect" gradientTransform="matrix(1.1186669,0,0,1.1186669,-1313.8973,-363.69581)" />
    <linearGradient inkscape:collect="always" xlink:href="#linearGradient534" id="linearGradient535" x1="1653.1272" y1="408.34476" x2="1653.1272" y2="616.09863" gradientUnits="userSpaceOnUse" gradientTransform="matrix(1.1186669,0,0,1.1186669,-1352.04,-170.58649)" />
    <filter inkscape:collect="always" style="color-interpolation-filters:sRGB" id="filter584" x="-0.061984358" y="-0.061982583" width="1.1239687" height="1.1239652">
      <feGaussianBlur inkscape:collect="always" stdDeviation="3.8682321" id="feGaussianBlur584" />
    </filter>
    <filter inkscape:collect="always" style="color-interpolation-filters:sRGB" id="filter592" x="-0.053689094" y="-0.053202981" width="1.1073782" height="1.106406">
      <feGaussianBlur inkscape:collect="always" stdDeviation="7.3371381" id="feGaussianBlur592" />
    </filter>
    <radialGradient inkscape:collect="always" xlink:href="#linearGradient682" id="radialGradient747" cx="1653.127" cy="512.22168" fx="1653.127" fy="512.22168" r="60.896484" gradientTransform="matrix(1,0,0,1.0000481,0,-0.02464261)" gradientUnits="userSpaceOnUse" />
    <radialGradient inkscape:collect="always" xlink:href="#linearGradient752" id="radialGradient754" cx="1653.127" cy="512.22168" fx="1653.127" fy="512.22168" r="240.94531" gradientTransform="matrix(1.1186669,0,0,0.964896,-1352.0397,-91.821718)" gradientUnits="userSpaceOnUse" spreadMethod="reflect" />
    <filter inkscape:collect="always" style="color-interpolation-filters:sRGB" id="filter754" x="-0.036942961" y="-0.042830388" width="1.0738859" height="1.0856608">
      <feGaussianBlur inkscape:collect="always" stdDeviation="7.4176953" id="feGaussianBlur754" />
    </filter>
  </defs>
  <path d="M 355.72338,656.68516 C 303.23161,652.178 257.9218,623.27157 231.12525,581.2975 l -15.83831,117.51465 c -0.50127,3.71907 1.0077,6.45677 3.54606,8.35941 2.53826,1.90264 5.642,2.62195 9.18963,1.1864 z" style="fill:#2c384b;stroke-width:1.678;stroke-linecap:round;stroke-linejoin:round;paint-order:stroke fill markers" id="path7" />
  <path d="m 370.13707,158.73414 c -85.29522,0 -153.61355,68.31827 -153.61355,153.61351 v 180.14251 c 0,17.67127 2.9337,34.61329 8.34201,50.37059 v 0.002 c 2.41677,7.04114 5.32888,13.8471 8.69372,20.37416 25.45068,49.36772 76.85208,82.86656 136.57782,82.86656 h 11.73515 29.63371 212.87448 c 85.29522,0 153.61343,-68.31826 153.61343,-153.61351 V 312.34769 c 0,-85.29524 -68.31821,-153.6135 -153.61343,-153.6135 z" style="fill:url(#linearGradient535);fill-opacity:1;stroke-width:2.26954;stroke-linecap:round;stroke-linejoin:round;paint-order:stroke fill markers" id="path6" />
  <path d="m 1539.4902,304.39648 c -70.9021,0 -127.3086,56.40647 -127.3086,127.3086 v 161.0332 c 0,14.68887 2.4358,28.72408 6.9161,41.77734 v 0.002 c 0.044,0.12921 0.088,0.25769 0.1328,0.38672 1.9752,5.69457 4.341,11.20361 7.0664,16.49023 21.0806,40.89093 63.5462,68.65234 113.1933,68.65234 h 10.4903 26.4902 190.293 c 70.9021,0 127.3086,-56.40646 127.3086,-127.30859 v -161.0332 c 0,-70.90213 -56.4065,-127.3086 -127.3086,-127.3086 z" style="fill:#000000;fill-opacity:1;stroke-width:2.02879;stroke-linecap:round;stroke-linejoin:round;paint-order:stroke fill markers;filter:url(#filter754)" id="path754" transform="matrix(1.1186669,0,0,1.1186669,-1352.0397,-170.58651)" />
  <path d="m 370.13703,169.93176 c -79.31583,0 -142.41592,63.10005 -142.41592,142.41591 v 180.14251 c 0,16.43196 2.72485,32.13268 7.73681,46.73493 v 0.002 c 0.0492,0.14454 0.0984,0.28827 0.14856,0.43261 2.20959,6.37033 4.85614,12.53311 7.90495,18.44707 23.58217,45.74333 71.08703,76.7991 126.6256,76.7991 h 11.73515 29.63371 212.87448 c 79.31583,0 142.41592,-63.10004 142.41592,-142.4159 V 312.34772 c 0,-79.31587 -63.10009,-142.41592 -142.41592,-142.41592 z" style="fill:url(#radialGradient754);fill-opacity:1;stroke-width:2.26954;stroke-linecap:round;stroke-linejoin:round;paint-order:stroke fill markers" id="path751" />
  <path d="m 370.13707,147.53659 c -91.30515,0 -164.81107,73.50591 -164.81107,164.8111 V 492.4902 c 0,25.98541 5.95343,50.52842 16.57674,72.3463 l -17.8593,132.52925 a 20.609013,20.133239 0 0 0 28.32062,21.22845 l 151.47019,-61.29289 h 240.54616 c 91.30514,0 164.81107,-73.50593 164.81107,-164.81111 V 312.34769 c 0,-91.30519 -73.50593,-164.8111 -164.81107,-164.8111 z m 0,11.1976 h 254.24334 c 85.29522,0 153.61343,68.31826 153.61343,153.6135 V 492.4902 c 0,85.29525 -68.31821,153.61351 -153.61343,153.61351 H 411.50593 381.87222 370.13707 c -59.72574,0 -111.12714,-33.49884 -136.57782,-82.86656 -3.36484,-6.52706 -6.27695,-13.33302 -8.69372,-20.37416 -5.40831,-15.75732 -8.34201,-32.70152 -8.34201,-50.37279 V 312.34769 c 0,-85.29524 68.31833,-153.6135 153.61355,-153.6135 z M 231.12525,581.2975 c 26.79655,41.97407 72.10636,70.8805 124.59813,75.38766 l -127.70075,51.6728 c -3.54763,1.43555 -6.65137,0.71624 -9.18963,-1.1864 -2.53836,-1.90264 -4.04733,-4.64034 -3.54606,-8.35941 z" style="fill:#6d7a8f;fill-opacity:1;stroke-width:2.26954;stroke-linecap:round;stroke-linejoin:round;paint-order:stroke fill markers" id="path8" />
  <rect style="fill:#d5af65;fill-opacity:1;stroke:none;stroke-width:0;stroke-linecap:round;stroke-linejoin:round;stroke-dasharray:none;stroke-opacity:1;paint-order:stroke fill markers" id="rect88" width="5.6039662" height="31.776031" x="493.43582" y="534.67584" />
  <rect style="fill:#cea560;fill-opacity:1;stroke:none;stroke-width:0;stroke-linecap:round;stroke-linejoin:round;stroke-dasharray:none;stroke-opacity:1;paint-order:stroke fill markers" id="rect87" width="5.6039662" height="31.776031" x="493.43582" y="245.96774" />
  <path id="rect91" style="fill:url(#linearGradient107);stroke-width:0;stroke-linecap:round;stroke-linejoin:round;paint-order:stroke fill markers" d="m 656.47973,403.4078 v 5.60396 h -31.77595 v -5.60396 z" />
  <rect style="fill:url(#linearGradient108);fill-opacity:1;stroke:none;stroke-width:0;stroke-linecap:round;stroke-linejoin:round;stroke-dasharray:none;stroke-opacity:1;paint-order:stroke fill markers" id="rect92" width="5.6039662" height="31.776031" x="403.40784" y="-367.77179" transform="rotate(90)" />
  <rect style="fill:#b18344;fill-opacity:1;stroke:none;stroke-width:0;stroke-linecap:round;stroke-linejoin:round;stroke-dasharray:none;stroke-opacity:1;paint-order:stroke fill markers" id="rect93" width="5.6039662" height="31.776031" x="635.32465" y="-223.90143" transform="rotate(45)" />
  <rect style="fill:url(#linearGradient112);fill-opacity:1;stroke:none;stroke-width:0;stroke-linecap:round;stroke-linejoin:round;stroke-dasharray:none;stroke-opacity:1;paint-order:stroke fill markers" id="rect96" width="5.6039662" height="31.776031" x="-66.461357" y="-509.66064" transform="rotate(135)" />
  <rect style="fill:url(#linearGradient113);fill-opacity:1;stroke:none;stroke-width:0;stroke-linecap:round;stroke-linejoin:round;stroke-dasharray:none;stroke-opacity:1;paint-order:stroke fill markers" id="rect97" width="5.6039662" height="31.776031" x="562.38898" y="-463.25626" transform="rotate(67.500001)" />
  <rect style="fill:url(#linearGradient114);fill-opacity:1;stroke:none;stroke-width:0;stroke-linecap:round;stroke-linejoin:round;stroke-dasharray:none;stroke-opacity:1;paint-order:stroke fill markers" id="rect98" width="5.6039662" height="31.776031" x="562.38898" y="-174.54816" transform="rotate(67.500001)" />
  <rect style="fill:url(#linearGradient115);fill-opacity:1;stroke:none;stroke-width:0;stroke-linecap:round;stroke-linejoin:round;stroke-dasharray:none;stroke-opacity:1;paint-order:stroke fill markers" id="rect99" width="5.6039662" height="31.776031" x="-305.81619" y="-725.43304" transform="rotate(157.5)" />
  <rect style="fill:url(#linearGradient116);fill-opacity:1;stroke:none;stroke-width:0;stroke-linecap:round;stroke-linejoin:round;stroke-dasharray:none;stroke-opacity:1;paint-order:stroke fill markers" id="rect100" width="5.6039662" height="31.776031" x="-305.81619" y="-436.72495" transform="rotate(157.5)" />
  <rect style="fill:url(#linearGradient117);fill-opacity:1;stroke:none;stroke-width:0;stroke-linecap:round;stroke-linejoin:round;stroke-dasharray:none;stroke-opacity:1;paint-order:stroke fill markers" id="rect101" width="5.6039658" height="31.77603" x="182.58501" y="453.67139" transform="matrix(-0.38268345,0.92387953,0.92387953,0.38268345,0,0)" />
  <rect style="fill:url(#linearGradient118);fill-opacity:1;stroke:none;stroke-width:0;stroke-linecap:round;stroke-linejoin:round;stroke-dasharray:none;stroke-opacity:1;paint-order:stroke fill markers" id="rect102" width="5.6039658" height="31.77603" x="182.58501" y="742.37946" transform="matrix(-0.38268345,0.92387953,0.92387953,0.38268345,0,0)" />
  <rect style="fill:url(#linearGradient119);fill-opacity:1;stroke:none;stroke-width:0;stroke-linecap:round;stroke-linejoin:round;stroke-dasharray:none;stroke-opacity:1;paint-order:stroke fill markers" id="rect103" width="5.6039658" height="31.77603" x="611.11145" y="-345.62906" transform="matrix(0.92387953,0.38268345,0.38268345,-0.92387953,0,0)" />
  <rect style="fill:#b68948;fill-opacity:1;stroke:none;stroke-width:0;stroke-linecap:round;stroke-linejoin:round;stroke-dasharray:none;stroke-opacity:1;paint-order:stroke fill markers" id="rect104" width="5.6039658" height="31.77603" x="611.11145" y="-56.920982" transform="matrix(0.92387953,0.38268345,0.38268345,-0.92387953,0,0)" />
  <path id="path585" style="fill:#000000;fill-opacity:1;stroke-width:1.42845;stroke-linecap:round;stroke-linejoin:round;paint-order:stroke fill markers;filter:url(#filter592)" d="m 2397.9386,593.69074 c -91.4532,-3e-5 -165.4901,74.0369 -165.4901,165.49008 0,91.4532 74.0369,165.49012 165.4901,165.49009 79.5785,-1.8e-4 147.5476,-56.50011 162.4933,-134.13521 h -17.6073 c -14.1324,66.93241 -73.2389,116.74413 -144.4665,116.74413 -81.8846,0 -147.6795,-65.79499 -147.6795,-147.67952 0,-81.88454 65.7949,-147.67952 147.6795,-147.67952 70.9296,0 129.8412,49.39453 144.2888,115.90516 h 17.785 c -14.9457,-77.6351 -82.9148,-134.13503 -162.4933,-134.13521 z" transform="matrix(1.1186669,0,0,1.1186669,-2185.1162,-441.53015)" />
  <path d="m 1653.127,437.33165 c -41.36,7.5e-4 -74.8883,33.53007 -74.8879,74.89005 -4e-4,41.35998 33.5279,74.88929 74.8879,74.89004 z m 0,0 v 149.78009 c 41.36,-7.5e-4 74.8883,-33.53006 74.8879,-74.89004 4e-4,-41.35998 -33.5279,-74.8893 -74.8879,-74.89005 z" style="mix-blend-mode:normal;fill:#000000;stroke:none;stroke-width:0;stroke-linecap:round;stroke-linejoin:round;stroke-dasharray:none;paint-order:stroke fill markers;filter:url(#filter584)" id="path584" sodipodi:nodetypes="cccccccc" transform="matrix(1.1485871,0,0,1.1485871,-1402.525,-182.12142)" />
  <path d="M 497.48838,204.74597 A 202.99425,202.99425 0 0 0 294.49407,407.7403 202.99425,202.99425 0 0 0 497.48838,610.73465 202.99425,202.99425 0 0 0 697.97664,439.53492 h -32.27958 c -14.59144,79.49142 -83.83368,139.24781 -167.70831,139.24781 -94.57198,0 -170.54211,-75.97013 -170.54211,-170.54208 0,-94.57195 75.97013,-170.54208 170.54211,-170.54208 83.52236,0 152.53594,59.25542 167.52261,138.24713 h 32.46528 A 202.99425,202.99425 0 0 0 497.48838,204.74597 Z" style="fill:#f6e6ac;fill-opacity:1;stroke-width:1.7038;stroke-linecap:round;stroke-linejoin:round;paint-order:stroke fill markers" id="path544" />
  <path d="m 497.48938,206.99422 c -110.89546,-2e-5 -200.74612,89.8506 -200.74612,200.74608 0,110.8955 89.85066,200.74612 200.74612,200.7461 97.86635,-2.8e-4 181.30235,-70.50323 197.83803,-166.70323 h -27.76564 c -15.51133,79.63542 -85.25775,139.24782 -169.57201,139.24782 -95.82288,0 -172.79041,-76.96746 -172.79041,-172.79034 0,-95.82288 76.96753,-172.79034 172.79041,-172.79034 83.96076,0 153.47663,59.11283 169.37534,138.24713 h 27.96231 c -16.53568,-96.2 -99.97168,-166.70294 -197.83803,-166.70322 z" style="fill:#ead59a;fill-opacity:1;stroke-width:1.7038;stroke-linecap:round;stroke-linejoin:round;paint-order:stroke fill markers" id="path548" />
  <path d="m 497.48938,209.23155 c -109.68629,-2e-5 -198.50878,88.82241 -198.50878,198.50875 0,109.68636 88.82249,198.50879 198.50878,198.50877 95.90197,-2.8e-4 177.76277,-68.4269 195.16587,-162.22856 h -23.26044 c -16.4123,79.77516 -86.65451,139.24782 -171.40505,139.24782 -97.06896,0 -175.02774,-77.95868 -175.02774,-175.02768 0,-97.069 77.95878,-175.02767 175.02774,-175.02767 84.3957,0 154.40534,58.97444 171.19754,138.24712 h 23.46795 C 675.25215,277.65845 593.39135,209.23182 497.48938,209.23155 Z" style="fill:#dec488;fill-opacity:1;stroke-width:1.7038;stroke-linecap:round;stroke-linejoin:round;paint-order:stroke fill markers" id="path549" />
  <path d="m 497.48938,211.46889 c -108.47713,-2e-5 -196.27145,87.79423 -196.27145,196.27141 0,108.47721 87.79432,196.27145 196.27145,196.27143 93.93301,-2.7e-4 174.21347,-66.35709 192.45657,-157.75389 h -18.73767 c -17.30152,79.9301 -88.01201,139.24782 -173.21852,139.24782 -98.2684,0 -177.26507,-78.99667 -177.26507,-177.26501 0,-98.26834 78.99667,-177.26501 177.26507,-177.26501 84.85033,0 155.32612,58.82095 173.00005,138.24713 h 18.95614 C 671.70285,277.82598 591.42239,211.46916 497.48938,211.46889 Z" style="fill:#d3b377;fill-opacity:1;stroke-width:1.7038;stroke-linecap:round;stroke-linejoin:round;paint-order:stroke fill markers" id="path550" />
  <path d="m 497.48938,213.70622 c -107.26796,-2e-5 -194.03411,86.76604 -194.03411,194.03408 0,107.26807 86.76604,194.03412 194.03411,194.0341 91.95912,-2.7e-4 170.65331,-64.29399 189.70801,-153.27923 H 673.0043 c -18.17352,80.04445 -89.3958,139.24782 -175.01454,139.24782 -99.51616,0 -179.50241,-79.98613 -179.50241,-179.50234 0,-99.5162 79.98625,-179.50234 179.50241,-179.50234 85.26132,0 156.24656,58.7078 174.7851,138.24712 h 14.42253 C 668.14269,278.00021 589.44861,213.70648 497.48938,213.70622 Z" style="fill:#c7a265;fill-opacity:1;stroke-width:1.7038;stroke-linecap:round;stroke-linejoin:round;paint-order:stroke fill markers" id="path552" />
  <path d="m 497.48938,215.94356 c -106.05891,-3e-5 -191.79678,85.73785 -191.79678,191.79674 0,106.05892 85.73787,191.79679 191.79678,191.79676 89.97997,-2.5e-4 167.08532,-62.23778 186.92231,-148.80455 h -9.62893 c -19.03356,80.15606 -90.76393,139.24782 -176.793,139.24782 -100.76526,0 -181.73974,-80.97444 -181.73974,-181.73968 0,-100.76524 80.97448,-181.73968 181.73974,-181.73968 85.67053,0 157.16118,58.59736 176.55271,138.24713 h 9.86922 C 664.5747,278.18134 587.46947,215.94381 497.48938,215.94356 Z" style="fill:#bc9154;fill-opacity:1;stroke-width:1.7038;stroke-linecap:round;stroke-linejoin:round;paint-order:stroke fill markers" id="path554" />
  <path d="m 497.48938,218.18089 c -104.84974,-2e-5 -189.55945,84.70966 -189.55945,189.55941 0,104.84978 84.70971,189.55945 189.55945,189.55943 87.99512,-2.6e-4 163.50402,-60.18864 184.09286,-144.32989 h -5.0406 c -19.88408,80.33686 -92.02646,139.24782 -178.55188,139.24782 -101.9657,0 -183.97708,-82.01126 -183.97708,-183.97701 0,-101.96576 82.01138,-183.97701 183.97708,-183.97701 86.16532,0 158.06752,58.41815 178.30286,138.24713 h 5.28962 C 660.9934,278.36953 585.48462,218.18114 497.48938,218.18089 Z" style="fill:#b08042;fill-opacity:1;stroke-width:1.7038;stroke-linecap:round;stroke-linejoin:round;paint-order:stroke fill markers" id="path556" />
  <path d="m 497.48949,220.41822 c -103.64068,-2e-5 -187.32222,83.68148 -187.32222,187.32208 0,103.64063 83.68154,187.32212 187.32222,187.3221 86.00423,-2.5e-4 159.91064,-58.14678 181.21968,-139.85522 h -0.42386 c -20.71973,80.44247 -93.36249,139.24781 -180.29555,139.24781 -103.16626,0 -186.21441,-83.04807 -186.21441,-186.21434 0,-103.16627 83.04815,-186.21434 186.21441,-186.21434 86.57173,0 158.97152,58.31365 180.03546,138.24712 h 0.68395 C 657.40013,278.565 583.49372,220.41847 497.48949,220.41822 Z" style="fill:#a57031;fill-opacity:1;stroke-width:1.7038;stroke-linecap:round;stroke-linejoin:round;paint-order:stroke fill markers" id="path558" />
  <path d="m 496.23551,320.17414 c -47.51538,8.6e-4 -86.03354,38.52025 -86.03309,86.03563 -4.5e-4,47.51537 38.51771,86.03477 86.03309,86.03563 z m 0,0 V 492.2454 c 47.5156,-8.6e-4 86.03354,-38.52026 86.03309,-86.03563 4.5e-4,-47.51538 -38.51749,-86.03477 -86.03309,-86.03563 z" style="fill:#f6e6ac;fill-opacity:1;stroke:none;stroke-width:0;stroke-linecap:round;stroke-linejoin:round;stroke-dasharray:none;paint-order:stroke fill markers" id="path661" sodipodi:nodetypes="cccccccc" />
  <rect style="fill:url(#linearGradient110);fill-opacity:1;stroke:none;stroke-width:0;stroke-linecap:round;stroke-linejoin:round;stroke-dasharray:none;stroke-opacity:1;paint-order:stroke fill markers" id="rect94" width="5.6039662" height="31.776031" x="635.32465" y="64.806671" transform="rotate(45)" />
  <rect style="fill:url(#linearGradient111);fill-opacity:1;stroke:none;stroke-width:0;stroke-linecap:round;stroke-linejoin:round;stroke-dasharray:none;stroke-opacity:1;paint-order:stroke fill markers" id="rect95" width="5.6039662" height="31.776031" x="-66.461357" y="-798.36871" transform="rotate(135)" />
  <path id="rect700" style="fill:#f6e6ac;stroke-width:0;stroke-linecap:round;stroke-linejoin:round;paint-order:stroke fill markers" d="m 739.64467,403.40779 v 5.604 c 0,9.52524 -3.89105,17.19358 -8.72425,17.19358 H 602.50708 c -4.83332,0 -8.72426,-7.66834 -8.72426,-17.19358 v -5.604 c 0,-9.52525 3.89094,-17.19359 8.72426,-17.19359 h 128.41334 c 4.8332,0 8.72425,7.66834 8.72425,17.19359 z" />
  <path id="rect701" d="m 737.39537,403.40766 c 0,-5.34774 -1.38871,-10.03865 -3.16594,-12.60248 -1.18478,-1.70923 -2.32806,-2.34221 -3.31013,-2.34221 H 602.5064 c -0.98207,0 -2.12535,0.63298 -3.31013,2.34221 -1.77723,2.56383 -3.16594,7.25474 -3.16594,12.60248 v 5.60426 c 0,5.34774 1.38871,10.03864 3.16594,12.60248 1.18478,1.70923 2.32806,2.34221 3.31013,2.34221 h 128.4129 c 0.98207,0 2.12535,-0.63298 3.31013,-2.34221 1.77723,-2.56384 3.16594,-7.25474 3.16594,-12.60248 z" style="fill:#ead59a;fill-opacity:1;stroke:none;stroke-width:0;stroke-linecap:round;stroke-linejoin:round;stroke-dasharray:none;stroke-opacity:1;paint-order:stroke fill markers" />
  <path id="path701" d="m 735.15804,403.40766 c 0,-4.98217 -1.3744,-9.32095 -2.76613,-11.32869 -0.92782,-1.33849 -1.43704,-1.37867 -1.47261,-1.37867 H 602.5064 c -0.0358,0 -0.54479,0.0402 -1.47261,1.37867 -1.39173,2.00774 -2.76613,6.34652 -2.76613,11.32869 v 5.60426 c 0,4.98217 1.3744,9.32095 2.76613,11.32869 0.92782,1.33849 1.43704,1.37867 1.47261,1.37867 h 128.4129 c 0.0358,0 0.54479,-0.0402 1.47261,-1.37867 1.39173,-2.00774 2.76613,-6.34652 2.76613,-11.32869 z" style="fill:#dec488;fill-opacity:1;stroke:none;stroke-width:0;stroke-linecap:round;stroke-linejoin:round;stroke-dasharray:none;stroke-opacity:1;paint-order:stroke fill markers" />
  <path id="path703" d="m 732.9207,403.40766 c 0,-4.61659 -1.3622,-8.60327 -2.36844,-10.05489 -0.0671,-0.0968 -0.13122,-0.18128 -0.19006,-0.25564 -0.0481,-0.0603 -0.0906,-0.11393 -0.13111,-0.1595 H 603.19461 c -0.0403,0.0455 -0.0828,0.0991 -0.13111,0.1595 -0.0593,0.0744 -0.12294,0.15887 -0.19006,0.25564 -1.00624,1.45162 -2.36844,5.4383 -2.36844,10.05489 v 5.60426 c 0,4.61659 1.3622,8.60326 2.36844,10.05489 0.0671,0.0968 0.13122,0.18128 0.19006,0.25563 0.0481,0.0603 0.0906,0.11394 0.13111,0.1595 h 127.03648 c 0.0403,-0.0455 0.0828,-0.0991 0.13111,-0.1595 0.0593,-0.0744 0.12294,-0.15886 0.19006,-0.25563 1.00624,-1.45163 2.36844,-5.4383 2.36844,-10.05489 z" style="fill:#d3b377;fill-opacity:1;stroke:none;stroke-width:0;stroke-linecap:round;stroke-linejoin:round;stroke-dasharray:none;stroke-opacity:1;paint-order:stroke fill markers" />
  <path id="path705" d="m 730.68337,403.40766 c 0,-2.83401 -0.50094,-5.3832 -1.11867,-7.04629 -0.0928,-0.24946 -0.18704,-0.47959 -0.27966,-0.68606 -0.0839,-0.18582 -0.16445,-0.35287 -0.24253,-0.50034 H 604.38319 c -0.0783,0.14747 -0.15907,0.31452 -0.24253,0.50034 -0.0928,0.20647 -0.18692,0.4366 -0.27966,0.68606 -0.61773,1.66309 -1.11867,4.21228 -1.11867,7.04629 v 5.60426 c 0,2.834 0.50094,5.38319 1.11867,7.04629 0.0928,0.24946 0.18704,0.47959 0.27966,0.68605 0.0839,0.18583 0.16445,0.35288 0.24253,0.50035 h 124.65932 c 0.0783,-0.14747 0.15907,-0.31452 0.24253,-0.50035 0.0928,-0.20646 0.18693,-0.43659 0.27966,-0.68605 0.61773,-1.6631 1.11867,-4.21229 1.11867,-7.04629 z" style="fill:#c7a265;fill-opacity:1;stroke:none;stroke-width:0;stroke-linecap:round;stroke-linejoin:round;stroke-dasharray:none;stroke-opacity:1;paint-order:stroke fill markers" />
  <path id="path707" d="m 728.44604,403.40766 c 0,-2.42295 -0.45016,-4.60898 -0.9002,-5.99536 H 605.87986 c -0.45004,1.38638 -0.90019,3.57241 -0.90019,5.99536 v 5.60426 c 0,2.42295 0.45015,4.60898 0.90019,5.99536 h 121.66598 c 0.45004,-1.38638 0.9002,-3.57241 0.9002,-5.99536 z" style="fill:#bc9154;fill-opacity:1;stroke:none;stroke-width:0;stroke-linecap:round;stroke-linejoin:round;stroke-dasharray:none;stroke-opacity:1;paint-order:stroke fill markers" />
  <path id="path709" d="m 726.2087,403.40766 c 0,-1.17329 -0.0984,-2.2716 -0.25785,-3.21616 -0.0313,-0.18668 -0.0649,-0.36807 -0.10068,-0.54186 H 607.5752 c -0.0358,0.17379 -0.0694,0.35518 -0.10068,0.54186 -0.15897,0.94456 -0.25786,2.04287 -0.25786,3.21616 v 5.60426 c 0,1.17329 0.0984,2.27159 0.25786,3.21616 0.0313,0.18667 0.0649,0.36807 0.10068,0.54186 h 118.27497 c 0.0358,-0.17379 0.0694,-0.35519 0.10068,-0.54186 0.15896,-0.94457 0.25785,-2.04287 0.25785,-3.21616 z" style="fill:#b08042;fill-opacity:1;stroke:none;stroke-width:0;stroke-linecap:round;stroke-linejoin:round;stroke-dasharray:none;stroke-opacity:1;paint-order:stroke fill markers" />
  <path id="path711" d="m 723.97137,403.40766 c 0,-0.52571 -0.0224,-1.03196 -0.0615,-1.50976 -3.3e-4,-0.003 2.3e-4,-0.008 0,-0.0112 H 609.51519 c -2.3e-4,0.003 3.3e-4,0.008 0,0.0112 -0.0392,0.4778 -0.0615,0.98405 -0.0615,1.50976 v 5.60426 c 0,0.52571 0.0224,1.03195 0.0615,1.50976 3.3e-4,0.003 -2.3e-4,0.008 0,0.0112 h 114.39465 c 2.3e-4,-0.003 -3.3e-4,-0.008 0,-0.0112 0.0391,-0.47781 0.0615,-0.98405 0.0615,-1.50976 z" style="fill:#a57031;fill-opacity:1;stroke:none;stroke-width:0;stroke-linecap:round;stroke-linejoin:round;stroke-dasharray:none;stroke-opacity:1;paint-order:stroke fill markers" />
  <path d="m 1653.127,437.10937 c -41.5034,7.6e-4 -75.1098,33.60794 -75.1094,75.11133 -4e-4,41.50343 33.606,75.11253 75.1094,75.11328 41.5034,-7.5e-4 75.1097,-33.60987 75.1093,-75.11328 4e-4,-41.50343 -33.6057,-75.11057 -75.1093,-75.11133 z" style="fill:#ead59a;fill-opacity:1;stroke:none;stroke-width:0;stroke-linecap:round;stroke-linejoin:round;stroke-dasharray:none;paint-order:stroke fill markers" id="path713" sodipodi:nodetypes="cccccccc" inkscape:path-effect="#path-effect714" inkscape:original-d="m 1653.1272,435.31259 c -42.475,7.7e-4 -76.9072,34.43407 -76.9068,76.90907 -4e-4,42.475 34.4318,76.9083 76.9068,76.90907 z m 0,0 v 153.81814 c 42.4752,-7.7e-4 76.9072,-34.43407 76.9068,-76.90907 4e-4,-42.475 -34.4316,-76.9083 -76.9068,-76.90907 z" transform="matrix(1.1186669,0,0,1.1186669,-1353.0631,-166.79565)" />
  <path d="m 1653.127,438.89844 c -40.5371,7.3e-4 -73.3207,32.78506 -73.3204,73.32226 -3e-4,40.53727 32.7833,73.32349 73.3204,73.32422 40.5371,-7.3e-4 73.3206,-32.78701 73.3203,-73.32422 3e-4,-40.53727 -32.7829,-73.32153 -73.3203,-73.32226 z" style="fill:#dec488;fill-opacity:1;stroke:none;stroke-width:0;stroke-linecap:round;stroke-linejoin:round;stroke-dasharray:none;paint-order:stroke fill markers" id="path714" sodipodi:nodetypes="cccccccc" inkscape:path-effect="#path-effect716" inkscape:original-d="m 1653.1272,435.31259 c -42.475,7.7e-4 -76.9072,34.43407 -76.9068,76.90907 -4e-4,42.475 34.4318,76.9083 76.9068,76.90907 z m 0,0 v 153.81814 c 42.4752,-7.7e-4 76.9072,-34.43407 76.9068,-76.90907 4e-4,-42.475 -34.4316,-76.9083 -76.9068,-76.90907 z" transform="matrix(1.1186669,0,0,1.1186669,-1353.0631,-166.79565)" />
  <path d="m 1653.127,440.68555 c -39.5709,7.1e-4 -71.5336,31.96415 -71.5332,71.53515 -4e-4,39.5711 31.9623,71.5364 71.5332,71.53711 39.5708,-7.1e-4 71.5335,-31.96609 71.5332,-71.53711 3e-4,-39.57111 -31.962,-71.53444 -71.5332,-71.53515 z" style="fill:#d3b377;fill-opacity:1;stroke:none;stroke-width:0;stroke-linecap:round;stroke-linejoin:round;stroke-dasharray:none;paint-order:stroke fill markers" id="path716" sodipodi:nodetypes="cccccccc" inkscape:path-effect="#path-effect718" inkscape:original-d="m 1653.1272,435.31259 c -42.475,7.7e-4 -76.9072,34.43407 -76.9068,76.90907 -4e-4,42.475 34.4318,76.9083 76.9068,76.90907 z m 0,0 v 153.81814 c 42.4752,-7.7e-4 76.9072,-34.43407 76.9068,-76.90907 4e-4,-42.475 -34.4316,-76.9083 -76.9068,-76.90907 z" transform="matrix(1.1186669,0,0,1.1186669,-1353.0631,-166.79565)" />
  <path d="m 1653.127,442.47461 c -38.6046,7e-4 -69.7446,31.14129 -69.7442,69.74609 -4e-4,38.60494 31.1396,69.74735 69.7442,69.74805 38.6045,-7e-4 69.7445,-31.14322 69.7441,-69.74805 4e-4,-38.60495 -31.1391,-69.74539 -69.7441,-69.74609 z" style="fill:#c7a265;fill-opacity:1;stroke:none;stroke-width:0;stroke-linecap:round;stroke-linejoin:round;stroke-dasharray:none;paint-order:stroke fill markers" id="path718" sodipodi:nodetypes="cccccccc" inkscape:path-effect="#path-effect720" inkscape:original-d="m 1653.1272,435.31259 c -42.475,7.7e-4 -76.9072,34.43407 -76.9068,76.90907 -4e-4,42.475 34.4318,76.9083 76.9068,76.90907 z m 0,0 v 153.81814 c 42.4752,-7.7e-4 76.9072,-34.43407 76.9068,-76.90907 4e-4,-42.475 -34.4316,-76.9083 -76.9068,-76.90907 z" transform="matrix(1.1186669,0,0,1.1186669,-1353.0631,-166.79565)" />
  <path d="m 1653.127,444.26172 c -37.6383,6.8e-4 -67.9574,30.32038 -67.9571,67.95898 -3e-4,37.63877 30.3187,67.96026 67.9571,67.96094 37.6382,-6.8e-4 67.9573,-30.32231 67.957,-67.96094 3e-4,-37.6388 -30.3182,-67.9583 -67.957,-67.95898 z" style="fill:#bc9154;fill-opacity:1;stroke:none;stroke-width:0;stroke-linecap:round;stroke-linejoin:round;stroke-dasharray:none;paint-order:stroke fill markers" id="path720" sodipodi:nodetypes="cccccccc" inkscape:path-effect="#path-effect722" inkscape:original-d="m 1653.1272,435.31259 c -42.475,7.7e-4 -76.9072,34.43407 -76.9068,76.90907 -4e-4,42.475 34.4318,76.9083 76.9068,76.90907 z m 0,0 v 153.81814 c 42.4752,-7.7e-4 76.9072,-34.43407 76.9068,-76.90907 4e-4,-42.475 -34.4316,-76.9083 -76.9068,-76.90907 z" transform="matrix(1.1186669,0,0,1.1186669,-1353.0631,-166.79565)" />
  <path d="m 1653.127,446.04883 c -36.6721,6.6e-4 -66.1703,29.49947 -66.17,66.17187 -3e-4,36.67261 29.4979,66.17317 66.17,66.17383 36.6719,-6.6e-4 66.1702,-29.50139 66.1699,-66.17383 3e-4,-36.67264 -29.4973,-66.17121 -66.1699,-66.17187 z" style="fill:#b08042;fill-opacity:1;stroke:none;stroke-width:0;stroke-linecap:round;stroke-linejoin:round;stroke-dasharray:none;paint-order:stroke fill markers" id="path722" sodipodi:nodetypes="cccccccc" inkscape:path-effect="#path-effect724" inkscape:original-d="m 1653.1272,435.31259 c -42.475,7.7e-4 -76.9072,34.43407 -76.9068,76.90907 -4e-4,42.475 34.4318,76.9083 76.9068,76.90907 z m 0,0 v 153.81814 c 42.4752,-7.7e-4 76.9072,-34.43407 76.9068,-76.90907 4e-4,-42.475 -34.4316,-76.9083 -76.9068,-76.90907 z" transform="matrix(1.1186669,0,0,1.1186669,-1353.0631,-166.79565)" />
  <path d="m 1653.127,447.83789 c -35.7058,6.5e-4 -64.3812,28.67661 -64.3809,64.38281 -3e-4,35.70644 28.675,64.38412 64.3809,64.38477 35.7056,-6.5e-4 64.3811,-28.67852 64.3808,-64.38477 3e-4,-35.70648 -28.6744,-64.38216 -64.3808,-64.38281 z" style="fill:#a57031;fill-opacity:1;stroke:none;stroke-width:0;stroke-linecap:round;stroke-linejoin:round;stroke-dasharray:none;paint-order:stroke fill markers" id="path724" sodipodi:nodetypes="cccccccc" inkscape:path-effect="#path-effect726" inkscape:original-d="m 1653.1272,435.31259 c -42.475,7.7e-4 -76.9072,34.43407 -76.9068,76.90907 -4e-4,42.475 34.4318,76.9083 76.9068,76.90907 z m 0,0 v 153.81814 c 42.4752,-7.7e-4 76.9072,-34.43407 76.9068,-76.90907 4e-4,-42.475 -34.4316,-76.9083 -76.9068,-76.90907 z" transform="matrix(1.1186669,0,0,1.1186669,-1353.0631,-166.79565)" />
  <path d="m 1653.127,449.625 c -34.7396,6.3e-4 -62.5941,27.8557 -62.5938,62.5957 -3e-4,34.74028 27.8541,62.59703 62.5938,62.59766 34.7393,-6.3e-4 62.594,-27.85761 62.5937,-62.59766 3e-4,-34.74032 -27.8535,-62.59507 -62.5937,-62.5957 z" style="fill:url(#radialGradient747);fill-opacity:1;stroke:none;stroke-width:0;stroke-linecap:round;stroke-linejoin:round;stroke-dasharray:none;paint-order:stroke fill markers" id="path726" sodipodi:nodetypes="cccccccc" transform="matrix(1.2014265,0,0,1.2014265,-1489.8753,-209.18693)" inkscape:original-d="m 1653.1272,435.31259 c -42.475,7.7e-4 -76.9072,34.43407 -76.9068,76.90907 -4e-4,42.475 34.4318,76.9083 76.9068,76.90907 z m 0,0 v 153.81814 c 42.4752,-7.7e-4 76.9072,-34.43407 76.9068,-76.90907 4e-4,-42.475 -34.4316,-76.9083 -76.9068,-76.90907 z" inkscape:path-effect="#path-effect728" />
</svg>